<svg xmlns="http://www.w3.org/2000/svg" xmlns:xlink="http://www.w3.org/1999/xlink" width="1080" zoomAndPan="magnify" viewBox="0 0 810 809.999993" height="1080" preserveAspectRatio="xMidYMid meet" version="1.0"><defs><clipPath id="e45e2dd30e"><path d="M 238 232 L 600 232 L 600 593.714844 L 238 593.714844 Z M 238 232 " clip-rule="nonzero"/></clipPath></defs><g clip-path="url(#e45e2dd30e)"><path fill="#03989e" d="M 295.796875 280.902344 C 292.578125 283.90625 289.472656 287.023438 286.480469 290.253906 C 283.488281 293.484375 280.621094 296.820312 277.875 300.261719 C 275.125 303.699219 272.507812 307.238281 270.023438 310.867188 C 267.535156 314.5 265.183594 318.21875 262.964844 322.023438 C 260.75 325.828125 258.675781 329.707031 256.746094 333.664062 C 254.8125 337.621094 253.027344 341.640625 251.390625 345.726562 C 249.753906 349.8125 248.265625 353.957031 246.933594 358.152344 C 245.597656 362.347656 244.417969 366.585938 243.394531 370.867188 C 242.371094 375.148438 241.503906 379.460938 240.796875 383.808594 C 240.089844 388.152344 239.539062 392.515625 239.152344 396.902344 C 238.761719 401.289062 238.535156 405.683594 238.46875 410.082031 C 238.398438 414.484375 238.492188 418.882812 238.75 423.28125 C 239.003906 427.675781 239.417969 432.054688 239.992188 436.417969 C 240.570312 440.785156 241.304688 445.121094 242.195312 449.433594 C 243.089844 453.742188 244.136719 458.015625 245.34375 462.25 C 246.550781 466.484375 247.90625 470.667969 249.421875 474.804688 C 250.933594 478.9375 252.59375 483.011719 254.402344 487.027344 C 256.214844 491.039062 258.167969 494.980469 260.265625 498.851562 C 262.363281 502.722656 264.601562 506.507812 266.976562 510.214844 C 269.355469 513.921875 271.863281 517.535156 274.503906 521.058594 C 277.144531 524.582031 279.910156 528.003906 282.800781 531.324219 C 285.691406 534.644531 288.699219 537.855469 291.824219 540.953125 C 294.949219 544.054688 298.1875 547.035156 301.53125 549.898438 C 304.875 552.761719 308.320312 555.5 311.863281 558.109375 C 315.40625 560.722656 319.042969 563.199219 322.769531 565.542969 C 326.496094 567.886719 330.300781 570.09375 334.1875 572.160156 C 338.074219 574.226562 342.035156 576.148438 346.0625 577.925781 C 350.089844 579.699219 354.175781 581.328125 358.324219 582.804688 C 362.472656 584.28125 366.667969 585.605469 370.910156 586.777344 C 375.15625 587.945312 379.4375 588.960938 383.753906 589.816406 C 388.070312 590.675781 392.414062 591.371094 396.785156 591.910156 C 401.152344 592.449219 405.539062 592.828125 409.933594 593.046875 C 412.867188 593.191406 415.839844 593.265625 418.808594 593.265625 C 422.46875 593.265625 426.125 593.15625 429.777344 592.933594 C 433.429688 592.714844 437.070312 592.382812 440.703125 591.9375 C 444.335938 591.496094 447.949219 590.941406 451.550781 590.28125 C 455.148438 589.617188 458.722656 588.847656 462.273438 587.964844 C 465.824219 587.085938 469.347656 586.097656 472.839844 585.003906 C 476.328125 583.910156 479.785156 582.707031 483.203125 581.402344 C 486.621094 580.097656 489.996094 578.691406 493.332031 577.183594 C 496.664062 575.671875 499.945312 574.0625 503.183594 572.351562 C 506.417969 570.640625 509.597656 568.835938 512.722656 566.929688 C 515.847656 565.027344 518.910156 563.03125 521.914062 560.941406 C 524.917969 558.851562 527.855469 556.671875 530.726562 554.402344 C 533.597656 552.136719 536.394531 549.78125 539.125 547.34375 C 541.851562 544.902344 544.503906 542.382812 547.078125 539.785156 C 549.652344 537.183594 552.144531 534.507812 554.554688 531.753906 C 556.96875 529.003906 559.292969 526.179688 561.535156 523.289062 C 563.773438 520.394531 565.921875 517.433594 567.984375 514.410156 C 570.042969 511.386719 572.007812 508.304688 573.882812 505.160156 C 575.753906 502.015625 577.527344 498.816406 579.207031 495.566406 C 580.882812 492.3125 582.460938 489.015625 583.9375 485.667969 C 585.414062 482.320312 586.789062 478.929688 588.058594 475.496094 C 589.332031 472.066406 590.496094 468.597656 591.554688 465.097656 C 592.617188 461.59375 593.566406 458.0625 594.414062 454.503906 C 595.257812 450.941406 595.992188 447.359375 596.621094 443.753906 C 597.246094 440.148438 597.765625 436.53125 598.171875 432.894531 C 598.578125 429.257812 598.875 425.609375 599.058594 421.957031 C 599.246094 418.300781 599.316406 414.644531 599.28125 410.984375 C 599.242188 407.328125 599.09375 403.671875 598.835938 400.023438 C 598.574219 396.371094 598.203125 392.734375 597.722656 389.105469 C 597.242188 385.480469 596.652344 381.871094 595.949219 378.277344 C 595.25 374.6875 594.441406 371.121094 593.523438 367.578125 C 592.605469 364.035156 591.578125 360.523438 590.449219 357.046875 C 589.316406 353.566406 588.082031 350.125 586.738281 346.71875 C 585.398438 343.3125 583.957031 339.953125 582.410156 336.636719 C 580.867188 333.320312 579.222656 330.054688 577.476562 326.835938 C 575.734375 323.621094 573.894531 320.457031 571.957031 317.355469 C 570.019531 314.25 567.992188 311.207031 565.871094 308.222656 C 563.75 305.242188 561.539062 302.328125 559.238281 299.480469 C 556.941406 296.636719 554.558594 293.859375 552.089844 291.160156 C 549.621094 288.457031 547.074219 285.832031 544.449219 283.285156 C 541.820312 280.738281 539.117188 278.273438 536.339844 275.890625 C 533.5625 273.507812 530.71875 271.214844 527.800781 269.003906 C 524.882812 266.792969 521.902344 264.675781 518.855469 262.648438 C 515.8125 260.621094 512.707031 258.6875 509.542969 256.847656 C 506.378906 255.007812 503.164062 253.269531 499.894531 251.625 C 496.625 249.980469 493.308594 248.4375 489.945312 246.996094 C 486.582031 245.554688 483.179688 244.21875 479.734375 242.984375 C 476.289062 241.75 472.8125 240.621094 469.296875 239.597656 C 465.785156 238.574219 462.242188 237.660156 458.675781 236.851562 C 455.105469 236.046875 451.515625 235.347656 447.90625 234.757812 C 444.292969 234.167969 440.667969 233.691406 437.027344 233.324219 C 433.386719 232.953125 429.738281 232.695312 426.082031 232.550781 C 422.425781 232.40625 418.769531 232.371094 415.109375 232.445312 C 411.453125 232.523438 407.800781 232.710938 404.152344 233.007812 C 400.507812 233.304688 396.871094 233.714844 393.25 234.234375 C 389.628906 234.753906 386.027344 235.382812 382.441406 236.121094 C 378.859375 236.859375 375.300781 237.707031 371.769531 238.664062 C 368.238281 239.617188 364.738281 240.679688 361.269531 241.847656 C 357.800781 243.015625 354.371094 244.289062 350.984375 245.667969 C 347.59375 247.042969 344.246094 248.523438 340.949219 250.101562 C 337.648438 251.683594 334.398438 253.363281 331.199219 255.140625 C 328.003906 256.917969 324.859375 258.792969 321.777344 260.761719 C 318.691406 262.730469 315.671875 264.789062 312.714844 266.945312 C 309.753906 269.097656 306.863281 271.335938 304.042969 273.667969 C 301.21875 275.996094 298.472656 278.40625 295.796875 280.902344 Z M 470.074219 354.316406 L 521.339844 415.257812 L 467.558594 415.257812 L 467.558594 532.28125 L 370.058594 532.28125 L 370.058594 415.257812 L 316.28125 415.257812 L 367.542969 354.316406 L 418.808594 293.386719 Z M 470.074219 354.316406 " fill-opacity="1" fill-rule="nonzero"/></g></svg>